<svg width="16" height="16" viewBox="0 0 16 16" fill="none" xmlns="http://www.w3.org/2000/svg">
<path d="M8.00002 10.6667C8.35364 10.6667 8.69278 10.8071 8.94283 11.0572C9.19288 11.3072 9.33335 11.6464 9.33335 12C9.33335 12.3536 9.19288 12.6928 8.94283 12.9428C8.69278 13.1929 8.35364 13.3333 8.00002 13.3333C7.6464 13.3333 7.30726 13.1929 7.05721 12.9428C6.80716 12.6928 6.66669 12.3536 6.66669 12C6.66669 11.6464 6.80716 11.3072 7.05721 11.0572C7.30726 10.8071 7.6464 10.6667 8.00002 10.6667ZM8.00002 6.66666C8.35364 6.66666 8.69278 6.80714 8.94283 7.05719C9.19288 7.30724 9.33335 7.64638 9.33335 8C9.33335 8.35362 9.19288 8.69276 8.94283 8.94281C8.69278 9.19285 8.35364 9.33333 8.00002 9.33333C7.6464 9.33333 7.30726 9.19285 7.05721 8.94281C6.80716 8.69276 6.66669 8.35362 6.66669 8C6.66669 7.64638 6.80716 7.30724 7.05721 7.05719C7.30726 6.80714 7.6464 6.66666 8.00002 6.66666ZM8.00002 2.66666C8.35364 2.66666 8.69278 2.80714 8.94283 3.05719C9.19288 3.30724 9.33335 3.64638 9.33335 4C9.33335 4.35362 9.19288 4.69276 8.94283 4.94281C8.69278 5.19285 8.35364 5.33333 8.00002 5.33333C7.6464 5.33333 7.30726 5.19285 7.05721 4.94281C6.80716 4.69276 6.66669 4.35362 6.66669 4C6.66669 3.64638 6.80716 3.30724 7.05721 3.05719C7.30726 2.80714 7.6464 2.66666 8.00002 2.66666Z" fill="#757575"/>
</svg>
