<svg width="16" height="16" viewBox="0 0 16 16" fill="none" xmlns="http://www.w3.org/2000/svg">
<path fill-rule="evenodd" clip-rule="evenodd" d="M14.2353 8.61765C14.2353 9.20878 14.1578 9.7818 14.0124 10.3271C13.8165 10.291 13.6145 10.2721 13.4081 10.2721C11.5807 10.2721 10.0993 11.7535 10.0993 13.5809C10.0993 13.9646 10.1646 14.3331 10.2847 14.6759C9.46885 15.0356 8.56657 15.2353 7.61765 15.2353C3.96282 15.2353 1 12.2725 1 8.61765C1 4.96282 3.96282 2 7.61765 2C9.54888 2 11.2869 2.82726 12.4967 4.14674L7.47427 9.16912L5.91361 7.60846L5.13604 8.38603L7.47427 10.7243L13.1735 5.02104C13.8452 6.05648 14.2353 7.29151 14.2353 8.61765ZM13.1735 5.02104C12.9722 4.7107 12.7456 4.41829 12.4967 4.14674L14.6434 2L15.421 2.77206L13.1735 5.02104Z" fill="#757575"/>
<path d="M11 12.875H12.875V11H14.125V12.875H16V14.125H14.125V16H12.875V14.125H11V12.875Z" fill="#757575"/>
</svg>
