<svg width="16" height="18" viewBox="0 0 16 18" fill="none" xmlns="http://www.w3.org/2000/svg">
<path d="M13.8333 15.8333H2.16667V6.66665H13.8333V15.8333ZM11.3333 0.833313V2.49998H4.66667V0.833313H3V2.49998H2.16667C1.24167 2.49998 0.5 3.24165 0.5 4.16665V15.8333C0.5 16.2753 0.675595 16.6993 0.988155 17.0118C1.30072 17.3244 1.72464 17.5 2.16667 17.5H13.8333C14.2754 17.5 14.6993 17.3244 15.0118 17.0118C15.3244 16.6993 15.5 16.2753 15.5 15.8333V4.16665C15.5 3.24165 14.75 2.49998 13.8333 2.49998H13V0.833313H11.3333ZM12.1667 9.99998H8V14.1666H12.1667V9.99998Z" fill="#767676"/>
</svg>
