<svg width="19" height="19" viewBox="0 0 19 19" fill="none" xmlns="http://www.w3.org/2000/svg">
<path d="M9.888 8.568H18.312C18.36 8.76 18.4 8.992 18.432 9.264C18.464 9.536 18.48 9.808 18.48 10.08C18.48 11.184 18.312 12.224 17.976 13.2C17.64 14.176 17.112 15.048 16.392 15.816C15.624 16.632 14.704 17.264 13.632 17.712C12.56 18.16 11.336 18.384 9.96 18.384C8.712 18.384 7.536 18.16 6.432 17.712C5.328 17.264 4.368 16.64 3.552 15.84C2.736 15.04 2.088 14.096 1.608 13.008C1.128 11.904 0.888 10.704 0.888 9.408C0.888 8.112 1.128 6.92 1.608 5.832C2.088 4.728 2.736 3.776 3.552 2.976C4.368 2.176 5.328 1.552 6.432 1.104C7.536 0.655999 8.712 0.431999 9.96 0.431999C11.352 0.431999 12.592 0.671999 13.68 1.152C14.784 1.632 15.728 2.296 16.512 3.144L14.28 5.328C13.72 4.736 13.096 4.288 12.408 3.984C11.72 3.664 10.896 3.504 9.936 3.504C9.152 3.504 8.408 3.648 7.704 3.936C7 4.208 6.384 4.6 5.856 5.112C5.328 5.624 4.904 6.248 4.584 6.984C4.28 7.704 4.128 8.512 4.128 9.408C4.128 10.304 4.28 11.12 4.584 11.856C4.904 12.576 5.328 13.192 5.856 13.704C6.4 14.216 7.024 14.616 7.728 14.904C8.432 15.176 9.184 15.312 9.984 15.312C10.896 15.312 11.664 15.184 12.288 14.928C12.928 14.656 13.472 14.312 13.92 13.896C14.24 13.608 14.512 13.248 14.736 12.816C14.976 12.368 15.16 11.872 15.288 11.328H9.888V8.568Z" fill="#757575"/>
</svg>
