<svg width="20" height="20" viewBox="0 0 20 20" fill="none" xmlns="http://www.w3.org/2000/svg">
<g clip-path="url(#clip0)">
<path d="M14.2105 19.9892H1.57895C0.707977 19.9867 0.00255001 19.2816 0 18.4111V1.5781C0.00255001 0.707595 0.707977 0.00254698 1.57895 0H18.4211C19.292 0.00254698 19.9975 0.707595 20 1.5781V14.2029L16.579 16.57L14.2105 19.9892Z" fill="#F4B400"/>
<path d="M6.65257 4.53825C4.80166 6.3852 4.79926 9.3821 6.64721 11.232C6.64812 11.2329 6.64903 11.2338 6.64994 11.2347L7.63152 12.2184V15.781L11.842 19.9892H14.2105L19.9999 14.2029V11.19L13.3499 4.54361C11.502 2.69369 8.50348 2.6913 6.65257 4.53825Z" fill="url(#paint0_linear)"/>
<g opacity="0.2">
<path opacity="0.2" d="M14.2106 19.9892V15.781C14.2103 14.9097 14.9169 14.2031 15.7887 14.2029C15.7889 14.2029 15.7892 14.2029 15.7895 14.2029H20L14.2106 19.9892Z" fill="#3E2723"/>
</g>
<path d="M14.2106 19.9892V15.781C14.2103 14.9097 14.9169 14.2031 15.7887 14.2029C15.7889 14.2029 15.7892 14.2029 15.7895 14.2029H20L14.2106 19.9892Z" fill="#FADA80"/>
<path d="M15.7886 14.2029C14.9169 14.2031 14.2103 14.9097 14.2106 15.781V15.9116C14.2108 15.0403 14.9177 14.3342 15.7895 14.3344H19.8685L20 14.2029H15.7895C15.7892 14.2029 15.7889 14.2029 15.7886 14.2029Z" fill="white" fill-opacity="0.2"/>
<path opacity="0.1" d="M10.0001 3.15631C7.38428 3.15599 5.2635 5.27509 5.26318 7.88946C5.26298 9.58097 6.16587 11.1441 7.63163 11.9897V15.7811H8.68428V16.8332H11.5791V15.7811H12.6317V11.8266C14.8069 10.3742 15.3921 7.43441 13.9389 5.26044C13.0599 3.94563 11.5822 3.15622 10.0001 3.15631ZM11.5791 14.729H8.68428V13.677H11.5791V14.729ZM11.5791 11.2164V12.6249H8.68428V11.3295C6.78309 10.6037 5.83063 8.47487 6.5569 6.57472C7.28317 4.67458 9.41315 3.72265 11.3143 4.44852C13.2155 5.17439 14.168 7.3032 13.4417 9.20334C13.1032 10.089 12.436 10.81 11.5791 11.2164Z" fill="#3E2723"/>
<path d="M10.0001 3.15631C7.38428 3.15599 5.2635 5.27509 5.26318 7.88946C5.26298 9.58097 6.16587 11.1441 7.63163 11.9897V15.7811H8.68428V16.8332H11.5791V15.7811H12.6317V11.8266C14.8069 10.3742 15.3921 7.43441 13.9389 5.26044C13.0599 3.94563 11.5822 3.15622 10.0001 3.15631ZM11.5791 14.729H8.68428V13.677H11.5791V14.729ZM11.5791 11.2164V12.6249H8.68428V11.3295C6.78309 10.6037 5.83063 8.47487 6.5569 6.57472C7.28317 4.67458 9.41315 3.72265 11.3143 4.44852C13.2155 5.17439 14.168 7.3032 13.4417 9.20334C13.1032 10.089 12.436 10.81 11.5791 11.2164Z" fill="#F1F1F1"/>
<path d="M8.68419 14.8605H11.5789V14.729H8.68419V14.8605ZM8.68419 12.7564H11.5789V12.6249H8.68419V12.7564ZM8.68419 11.3295C7.27739 10.7899 6.34065 9.44909 6.31843 7.94321C6.31843 7.96951 6.3158 7.99581 6.3158 8.02343C6.31795 9.5489 7.25927 10.9157 8.68418 11.4624V11.3295H8.68419ZM11.5789 11.2164V11.348C12.8634 10.7377 13.6825 9.44365 13.6841 8.02211C13.6841 7.99581 13.6828 7.97083 13.6815 7.94452C13.6607 9.34622 12.8456 10.6146 11.5789 11.2164ZM9.99996 3.15631C7.384 3.15652 5.26339 5.27601 5.26318 7.8906C5.26318 7.90902 5.2645 7.92743 5.2645 7.94715C5.30551 5.33321 7.45889 3.24741 10.0742 3.2884C12.6322 3.32849 14.696 5.39178 14.7354 7.94847C14.7354 7.92874 14.7367 7.91033 14.7367 7.8906C14.7365 5.27601 12.6159 3.15652 9.99996 3.15631Z" fill="white" fill-opacity="0.4"/>
<path d="M7.63166 11.9896C6.18398 11.1541 5.28431 9.61767 5.2645 7.94703C5.2645 7.97202 5.26318 7.997 5.26318 8.02199C5.26255 9.71332 6.16562 11.2763 7.63166 12.1211V11.9896ZM8.68432 13.8083H11.5791V13.6768H8.68432V13.8083ZM10.0001 4.33976C12.0035 4.34197 13.6384 5.94267 13.6818 7.9444C13.6818 7.92599 13.6845 7.90889 13.6845 7.89048C13.6845 5.85684 12.0349 4.20825 10.0002 4.20825C7.96537 4.20825 6.31585 5.85684 6.31585 7.89048C6.31585 7.90758 6.31716 7.92467 6.31848 7.94177C6.36305 5.94096 7.99771 4.34167 10.0001 4.33976ZM11.5791 15.9125H12.6318V15.781H11.5791V15.9125ZM14.7358 7.94834C14.7183 9.509 13.9309 10.9604 12.6318 11.8265V11.958C13.948 11.0805 14.7381 9.60332 14.7371 8.02199C14.7371 7.997 14.7358 7.97333 14.7358 7.94834ZM8.68432 15.781H7.63166V15.9125H8.68432V15.781ZM8.68432 16.9645H11.5791V16.833H8.68432V16.9645Z" fill="#BF360C" fill-opacity="0.1"/>
<path d="M18.421 0H1.57895C0.707977 0.00254698 0.00255001 0.707595 0 1.5781V1.70961C0.00255001 0.839104 0.707977 0.134056 1.57895 0.131509H18.4211C19.292 0.134056 19.9975 0.839104 20 1.70961V1.5781C19.9975 0.707595 19.292 0.00254698 18.421 0Z" fill="white" fill-opacity="0.2"/>
<path d="M1.57895 19.8577C0.707977 19.8552 0.00255001 19.1501 0 18.2796V18.4111C0.00255001 19.2816 0.707977 19.9867 1.57895 19.9892H14.2105L20 14.2029H19.8684L14.2105 19.8577H1.57895Z" fill="#BF360C" fill-opacity="0.1"/>
<path d="M14.2105 19.9892H1.57895C0.707977 19.9867 0.00255001 19.2816 0 18.4111V1.5781C0.00255001 0.707595 0.707977 0.00254698 1.57895 0H18.4211C19.292 0.00254698 19.9975 0.707595 20 1.5781V14.2029L14.2105 19.9892Z" fill="url(#paint1_radial)"/>
</g>
<defs>
<linearGradient id="paint0_linear" x1="6.39178" y1="6.0653" x2="17.2035" y2="16.883" gradientUnits="userSpaceOnUse">
<stop stop-color="#BF360C" stop-opacity="0.1"/>
<stop offset="1" stop-color="#BF360C" stop-opacity="0.02"/>
</linearGradient>
<radialGradient id="paint1_radial" cx="0" cy="0" r="1" gradientUnits="userSpaceOnUse" gradientTransform="translate(0.603341 0.643503) scale(23.3024 23.2895)">
<stop stop-color="white" stop-opacity="0.1"/>
<stop offset="1" stop-color="white" stop-opacity="0"/>
</radialGradient>
<clipPath id="clip0">
<rect width="20" height="20" fill="white"/>
</clipPath>
</defs>
</svg>
