<svg width="16" height="16" viewBox="0 0 16 16" fill="none" xmlns="http://www.w3.org/2000/svg">
<path d="M12.5533 4.66667H10.82L7.00001 2.66667L2.66668 4.93334V11.3333C1.93334 11.3333 1.33334 10.7333 1.33334 10V4.78C1.33334 4.42667 1.54668 4.05334 1.86668 3.88667L7.00001 1.33334L12.0267 3.88667C12.3133 4.04 12.5133 4.35334 12.5533 4.66667ZM13.3333 5.33334H4.66668C3.93334 5.33334 3.33334 5.93334 3.33334 6.66667V12.6667C3.33334 13.4 3.93334 14 4.66668 14H13.3333C14.0667 14 14.6667 13.4 14.6667 12.6667V6.66667C14.6667 5.93334 14.0667 5.33334 13.3333 5.33334ZM13.3333 7.78L9.00001 10L4.66668 7.78V6.66667L9.00001 8.88667L13.3333 6.66667V7.78Z" fill="#757575"/>
</svg>
