<svg width="20" height="20" viewBox="0 0 20 20" fill="none" xmlns="http://www.w3.org/2000/svg">
<path d="M15.8333 6.66667H4.16663C2.78329 6.66667 1.66663 7.78333 1.66663 9.16667V14.1667H4.99996V17.5H15V14.1667H18.3333V9.16667C18.3333 7.78333 17.2166 6.66667 15.8333 6.66667ZM13.3333 15.8333H6.66663V11.6667H13.3333V15.8333ZM15.8333 10C15.375 10 15 9.625 15 9.16667C15 8.70833 15.375 8.33333 15.8333 8.33333C16.2916 8.33333 16.6666 8.70833 16.6666 9.16667C16.6666 9.625 16.2916 10 15.8333 10ZM15 2.5H4.99996V5.83333H15V2.5Z" fill="#64676C"/>
</svg>
