<svg width="18" height="18" viewBox="0 0 18 18" fill="none" xmlns="http://www.w3.org/2000/svg">
<path d="M9 0.666672C7.90565 0.666672 6.82202 0.88222 5.81097 1.30101C4.79993 1.7198 3.88127 2.33363 3.10744 3.10745C1.54464 4.67025 0.666668 6.78987 0.666668 9.00001C0.666668 11.2101 1.54464 13.3298 3.10744 14.8926C3.88127 15.6664 4.79993 16.2802 5.81097 16.699C6.82202 17.1178 7.90565 17.3333 9 17.3333C11.2101 17.3333 13.3298 16.4554 14.8926 14.8926C16.4554 13.3298 17.3333 11.2101 17.3333 9.00001C17.3333 7.90566 17.1178 6.82202 16.699 5.81098C16.2802 4.79993 15.6664 3.88127 14.8926 3.10745C14.1187 2.33363 13.2001 1.7198 12.189 1.30101C11.178 0.88222 10.0944 0.666672 9 0.666672ZM12.5 12.5L8.16667 9.83334V4.83334H9.41667V9.16667L13.1667 11.4167L12.5 12.5Z" fill="#64676C"/>
</svg>
